<svg height="512pt" viewBox="-28 0 511 512" width="512pt" xmlns="http://www.w3.org/2000/svg"><path d="m90.550781 405.882812c-4.144531 0-7.5 3.355469-7.5 7.5v26.414063c0 4.144531 3.355469 7.5 7.5 7.5h97.34375c4.140625 0 7.5-3.355469 7.5-7.5v-26.414063c0-4.144531-3.359375-7.5-7.5-7.5zm89.84375 26.414063h-82.34375v-11.414063h82.34375zm0 0"/><path d="m392.714844 418.691406h-112.023438c-4.144531 0-7.5 3.359375-7.5 7.5 0 4.144532 3.355469 7.5 7.5 7.5h112.023438c4.140625 0 7.5-3.355468 7.5-7.5 0-4.140625-3.359375-7.5-7.5-7.5zm0 0"/><path d="m393.109375 261.410156c4.144531 0 7.5-3.355468 7.5-7.5v-127.648437c0-1.445313-.417969-2.863281-1.203125-4.078125l-41.304688-63.761719c-1.382812-2.132813-3.753906-3.421875-6.296874-3.421875h-247.5c-2.539063 0-4.910157 1.289062-6.292969 3.421875l-41.304688 63.761719c-.789062 1.214844-1.207031 2.632812-1.207031 4.078125v262.273437c0 4.144532 3.359375 7.5 7.5 7.5h330.109375c4.144531 0 7.5-3.355468 7.5-7.5v-109.378906c0-4.140625-3.355469-7.5-7.5-7.5-4.140625 0-7.5 3.359375-7.5 7.5v57.617188h-41.203125v-65.375c0-4.140626-3.359375-7.5-7.5-7.5-23.726562.648437-26.632812-1.554688-30.382812 2.195312l-20.738282 20.738281h-26.785156l-20.738281-20.738281c-1.40625-1.40625-3.3125-2.195312-5.300781-2.195312h-63.855469c-4.140625 0-7.5 3.359374-7.5 7.5v65.375h-91.105469v-168.917969h165.859375v24.175781c0 4.144531 3.359375 7.5 7.5 7.5h.90625v12.984375c0 4.144531 3.355469 7.5 7.5 7.5h14.328125v18.195313c0 4.140624 3.355469 7.5 7.5 7.5 4.140625 0 7.5-3.359376 7.5-7.5v-18.195313h14.328125c4.140625 0 7.5-3.355469 7.5-7.5v-12.984375h2.082031c4.140625 0 7.5-3.355469 7.5-7.5v-24.175781h72.609375v86.054687c-.003906 4.144532 3.355469 7.5 7.496094 7.5zm-284.726563-191.410156h239.347657l32.9375 50.847656h-67.664063v-11.941406c0-4.140625-3.359375-7.5-7.5-7.5h-2.082031v-3.210938c0-12.878906-10.480469-23.355468-23.359375-23.355468h-8.324219c-12.878906 0-23.359375 10.476562-23.359375 23.355468v3.210938h-4.519531c-4.140625 0-7.5 3.359375-7.5 7.5v11.941406h-160.917969zm180.039063 31.40625h-25.042969v-3.210938c0-4.609374 3.75-8.359374 8.359375-8.359374h8.324219c4.609375 0 8.359375 3.75 8.359375 8.359374zm-37.0625 83.125v-68.125h46.644531v68.125zm-74.753906 94.367188h53.25l20.738281 20.738281c1.402344 1.40625 3.3125 2.195312 5.300781 2.195312h33c1.988281 0 3.894531-.789062 5.300781-2.195312l20.738282-20.738281h14.472656v57.875h-152.800781zm209.003906 72.875v29.261718h-315.109375v-29.261718zm-315.109375-198.917969v-17.007813h165.859375v17.007813zm217.921875 52.160156h-28.65625v-5.480469h28.65625zm24.582031-52.160156v-17.007813h72.605469v17.007813zm0 0"/><path d="m454.40625 105.925781-66.402344-102.503906c-1.382812-2.132813-3.75-3.421875-6.292968-3.421875h-307.308594c-2.542969 0-4.914063 1.289062-6.292969 3.421875l-66.402344 102.503906c-.789062 1.214844-1.207031 2.632813-1.207031 4.078125v38.355469c0 4.140625 3.359375 7.5 7.5 7.5s7.5-3.359375 7.5-7.5v-36.140625l62.980469-97.21875h299.152343l62.976563 97.222656v345.199219h-425.109375v-283.816406c0-4.144531-3.355469-7.5-7.5-7.5-4.140625 0-7.5 3.355469-7.5 7.5v291.316406c0 4.140625 3.359375 7.5 7.5 7.5h13.082031v32.078125c0 4.144531 3.359375 7.5 7.5 7.5h85.84375c4.140625 0 7.5-3.355469 7.5-7.5v-32.078125h191.941407v32.078125c0 4.144531 3.359374 7.5 7.5 7.5h85.84375c4.140624 0 7.5-3.355469 7.5-7.5v-32.078125h33.398437c4.144531 0 7.5-3.355469 7.5-7.5v-354.917969c0-1.445312-.417969-2.863281-1.203125-4.078125zm-347.480469 391.074219h-70.84375v-24.578125h70.84375zm292.785157 0h-70.84375v-24.578125h70.84375zm0 0"/></svg>