<svg id="Capa_1" enable-background="new 0 0 512 512" height="512" viewBox="0 0 512 512" width="512" xmlns="http://www.w3.org/2000/svg"><path d="m482.134 132.048h-100.287l75.627-75.629c.027-.027.053-.054.08-.081 4.373-4.506 6.728-10.697 6.461-16.984-.259-6.13-2.983-11.885-7.474-15.791-8.706-7.569-22.133-7.022-30.623 1.299l-107.183 107.186h-288.869c-16.468 0-29.866 13.398-29.866 29.866v301.986c0 16.469 13.398 29.867 29.866 29.867h397.458c4.142 0 7.5-3.358 7.5-7.5s-3.358-7.5-7.5-7.5h-397.458c-8.197 0-14.866-6.669-14.866-14.867v-301.986c0-8.198 6.669-14.867 14.866-14.867h273.869l-54.631 54.633c-.778.777-1.375 1.716-1.749 2.75l-8.143 22.493c-14.242-10.119-31.64-16.075-50.402-16.075-48.094 0-87.221 39.127-87.221 87.221s39.127 87.221 87.221 87.221 87.221-39.127 87.221-87.221c0-20.947-7.424-40.191-19.777-55.244l21.656-7.84c1.034-.375 1.973-.972 2.75-1.749l58.087-58.088h81.077v34.529c0 .01-.001.019-.001.029v54.325c0 .01.001.019.001.029v48.793c0 .019-.001.038-.001.058s.001.038.001.058v48.792c0 .01-.001.019-.001.029v54.325c0 .01.001.019.001.029v34.532h-375.433v-275.527h199.283c4.142 0 7.5-3.358 7.5-7.5s-3.358-7.5-7.5-7.5h-206.783c-4.142 0-7.5 3.358-7.5 7.5v290.527c0 4.142 3.358 7.5 7.5 7.5h390.433c4.142 0 7.5-3.358 7.5-7.5v-34.562h34.702c6.518 0 11.821-5.303 11.821-11.821v-45.683c0-6.518-5.303-11.821-11.821-11.821h-34.702v-16.039c4.132 2.278 8.875 3.579 13.917 3.579 15.946 0 28.918-12.974 28.918-28.92s-12.973-28.919-28.918-28.919c-5.042 0-9.786 1.3-13.917 3.579v-16.039h34.702c6.518 0 11.821-5.303 11.821-11.821v-45.683c0-6.518-5.303-11.821-11.821-11.821h-34.702v-34.558c0-4.142-3.358-7.5-7.5-7.5h-73.577l13.101-13.101h115.286c8.197 0 14.866 6.669 14.866 14.867v301.987c0 8.198-6.669 14.867-14.866 14.867h-21.719c-4.142 0-7.5 3.358-7.5 7.5s3.358 7.5 7.5 7.5h21.719c16.468 0 29.866-13.398 29.866-29.867v-301.986c0-16.468-13.398-29.866-29.866-29.866zm-15.787 276.567h-31.523v-12.163h31.523zm0-39.325v12.162h-31.523v-12.162zm-17.605-70.299c7.675 0 13.918 6.245 13.918 13.92s-6.244 13.919-13.918 13.919c-7.665 0-13.902-6.229-13.917-13.891v-.058c.015-7.661 6.252-13.89 13.917-13.89zm17.605-42.46h-31.523v-12.163h31.523zm0-39.325v12.162h-31.523v-12.162zm-277.537 153.085c-39.823 0-72.221-32.398-72.221-72.221s32.398-72.221 72.221-72.221 72.221 32.398 72.221 72.221-32.398 72.221-72.221 72.221zm82.424-148.841-16.212 5.869 5.869-16.213 66.19-66.192c.045-.044.089-.088.133-.133l109.257-109.26c2.841-2.786 7.429-3.073 10.227-.64 1.396 1.213 2.245 3.075 2.331 5.107.093 2.206-.69 4.288-2.207 5.87l-88.356 88.358c-.02.02-.039.039-.059.059l-28.039 28.04c-.021.021-.042.042-.064.064z"/></svg>